<svg width="180" height="36" viewBox="0 0 993 208" fill="none" xmlns="http://www.w3.org/2000/svg"><path d="M245.66 122.9L205.46 177.2H0.259766L39.5598 137.9H174.26L186.86 122.9L174.26 107H39.2598L0.259766 54.8L40.4598 0.499991H245.66L206.06 39.8H71.6598L58.7598 54.8L71.6598 70.7H206.66L245.66 122.9ZM490.15 177.5H436.45V126.5H329.05V177.5L275.65 207.8V40.7L315.85 0.499991H449.95L490.15 40.7V177.5ZM436.45 87.5V40.1H329.05V87.5H436.45ZM753.482 177.2H700.082V134L683.882 118.1H581.882V177.2L528.482 207.8V0.499991H713.282L753.482 54.8L722.882 95.9L753.482 126.5V177.2ZM698.582 58.4L684.482 39.8H581.882V77.9H684.482L698.582 58.4Z" fill="white"></path><path d="M992.458 0.499991L924.958 64.7L986.758 126.5V177.5H933.358V134.3L893.758 94.7L837.058 148.4V177.5L783.658 207.8V0.499991H837.058V87.2L929.158 0.499991H992.458Z" fill="#D10000"></path></svg>